<mxfile host="app.diagrams.net" modified="2023-07-02T08:49:10.352Z" agent="Mozilla/5.0 (Windows NT 10.0; Win64; x64) AppleWebKit/537.36 (KHTML, like Gecko) Chrome/114.0.0.0 Safari/537.36" etag="jlhTGSv3ZS33LFeugRyk" version="21.3.3" type="device">
  <diagram name="Page-1" id="UbNgvHRl37oKhNMCmcEW">
    <mxGraphModel dx="768" dy="1512" grid="1" gridSize="10" guides="1" tooltips="1" connect="1" arrows="1" fold="1" page="1" pageScale="1" pageWidth="827" pageHeight="1169" math="0" shadow="0">
      <root>
        <mxCell id="0" />
        <mxCell id="1" parent="0" />
        <mxCell id="lsiyhuXYmnHMVX7ljGka-59" value="" style="curved=1;endArrow=classic;html=1;rounded=0;" edge="1" parent="1">
          <mxGeometry width="50" height="50" relative="1" as="geometry">
            <mxPoint x="580" y="163.95" as="sourcePoint" />
            <mxPoint x="580" y="115.95" as="targetPoint" />
            <Array as="points">
              <mxPoint x="580" y="165.95" />
              <mxPoint x="530" y="143.95" />
              <mxPoint x="530" y="115.95" />
            </Array>
          </mxGeometry>
        </mxCell>
        <mxCell id="lsiyhuXYmnHMVX7ljGka-18" value="" style="shape=cylinder3;whiteSpace=wrap;html=1;boundedLbl=1;backgroundOutline=1;size=5.451896551724076;rotation=90;" vertex="1" parent="1">
          <mxGeometry x="67.44" y="115.95" width="17.5" height="38.12" as="geometry" />
        </mxCell>
        <mxCell id="lsiyhuXYmnHMVX7ljGka-35" value="" style="shape=or;whiteSpace=wrap;html=1;rotation=110;" vertex="1" parent="1">
          <mxGeometry x="631.11" y="38.89" width="32.5" height="173.25" as="geometry" />
        </mxCell>
        <mxCell id="lsiyhuXYmnHMVX7ljGka-37" value="" style="shape=filledEdge;curved=0;rounded=0;fixDash=1;endArrow=none;strokeWidth=10;fillColor=#ffffff;edgeStyle=orthogonalEdgeStyle;html=1;" edge="1" parent="1" source="lsiyhuXYmnHMVX7ljGka-41">
          <mxGeometry width="60" height="40" relative="1" as="geometry">
            <mxPoint x="630" y="140" as="sourcePoint" />
            <mxPoint x="554.0000000000002" y="29.49" as="targetPoint" />
            <Array as="points">
              <mxPoint x="555" y="30" />
            </Array>
          </mxGeometry>
        </mxCell>
        <mxCell id="lsiyhuXYmnHMVX7ljGka-4" value="" style="rounded=0;whiteSpace=wrap;html=1;" vertex="1" parent="1">
          <mxGeometry x="89" y="130" width="270" height="10" as="geometry" />
        </mxCell>
        <mxCell id="lsiyhuXYmnHMVX7ljGka-24" value="" style="shape=cube;whiteSpace=wrap;html=1;boundedLbl=1;backgroundOutline=1;darkOpacity=0.05;darkOpacity2=0.1;" vertex="1" parent="1">
          <mxGeometry x="69" y="230" width="120" height="20" as="geometry" />
        </mxCell>
        <mxCell id="lsiyhuXYmnHMVX7ljGka-16" value="" style="shape=or;whiteSpace=wrap;html=1;rotation=15;" vertex="1" parent="1">
          <mxGeometry x="86.40999999999997" y="-18" width="22.59" height="60" as="geometry" />
        </mxCell>
        <mxCell id="lsiyhuXYmnHMVX7ljGka-7" value="" style="rounded=0;whiteSpace=wrap;html=1;" vertex="1" parent="1">
          <mxGeometry x="79" y="240" width="280" height="10" as="geometry" />
        </mxCell>
        <mxCell id="lsiyhuXYmnHMVX7ljGka-8" value="" style="rounded=0;whiteSpace=wrap;html=1;" vertex="1" parent="1">
          <mxGeometry x="69" y="40" width="10" height="210" as="geometry" />
        </mxCell>
        <mxCell id="lsiyhuXYmnHMVX7ljGka-9" value="" style="rounded=0;whiteSpace=wrap;html=1;" vertex="1" parent="1">
          <mxGeometry x="359" y="40" width="10" height="210" as="geometry" />
        </mxCell>
        <mxCell id="lsiyhuXYmnHMVX7ljGka-10" value="" style="endArrow=none;html=1;rounded=0;exitX=1;exitY=1;exitDx=0;exitDy=0;entryX=0;entryY=1;entryDx=0;entryDy=0;" edge="1" parent="1" source="lsiyhuXYmnHMVX7ljGka-5" target="lsiyhuXYmnHMVX7ljGka-2">
          <mxGeometry width="50" height="50" relative="1" as="geometry">
            <mxPoint x="179" y="180" as="sourcePoint" />
            <mxPoint x="229" y="130" as="targetPoint" />
          </mxGeometry>
        </mxCell>
        <mxCell id="lsiyhuXYmnHMVX7ljGka-2" value="" style="rounded=0;whiteSpace=wrap;html=1;shadow=1;" vertex="1" parent="1">
          <mxGeometry x="119" y="120" width="200" height="80" as="geometry" />
        </mxCell>
        <mxCell id="lsiyhuXYmnHMVX7ljGka-11" value="" style="rounded=0;whiteSpace=wrap;html=1;" vertex="1" parent="1">
          <mxGeometry x="119" y="120" width="200" height="10" as="geometry" />
        </mxCell>
        <mxCell id="lsiyhuXYmnHMVX7ljGka-12" value="" style="shape=parallelogram;perimeter=parallelogramPerimeter;whiteSpace=wrap;html=1;fixedSize=1;" vertex="1" parent="1">
          <mxGeometry x="69" y="-20" width="30" height="60" as="geometry" />
        </mxCell>
        <mxCell id="lsiyhuXYmnHMVX7ljGka-17" value="" style="endArrow=none;html=1;rounded=0;exitX=0;exitY=1;exitDx=0;exitDy=0;entryX=0;entryY=1;entryDx=0;entryDy=0;" edge="1" parent="1" source="lsiyhuXYmnHMVX7ljGka-2" target="lsiyhuXYmnHMVX7ljGka-5">
          <mxGeometry width="50" height="50" relative="1" as="geometry">
            <mxPoint x="189" y="120" as="sourcePoint" />
            <mxPoint x="239" y="70" as="targetPoint" />
          </mxGeometry>
        </mxCell>
        <mxCell id="lsiyhuXYmnHMVX7ljGka-5" value="" style="rounded=0;whiteSpace=wrap;html=1;" vertex="1" parent="1">
          <mxGeometry x="99" y="120" width="10" height="30" as="geometry" />
        </mxCell>
        <mxCell id="lsiyhuXYmnHMVX7ljGka-21" value="" style="shape=parallelogram;perimeter=parallelogramPerimeter;whiteSpace=wrap;html=1;fixedSize=1;size=10;" vertex="1" parent="1">
          <mxGeometry x="119" y="190" width="200" height="10" as="geometry" />
        </mxCell>
        <mxCell id="lsiyhuXYmnHMVX7ljGka-27" value="" style="verticalLabelPosition=bottom;verticalAlign=top;html=1;shape=mxgraph.basic.frame_corner;dx=7.22;whiteSpace=wrap;rotation=-180;" vertex="1" parent="1">
          <mxGeometry x="277.75" y="192.5" width="41.25" height="12.5" as="geometry" />
        </mxCell>
        <mxCell id="lsiyhuXYmnHMVX7ljGka-28" value="" style="verticalLabelPosition=bottom;verticalAlign=top;html=1;shape=mxgraph.basic.rect;fillColor2=none;strokeWidth=1;size=20;indent=5;" vertex="1" parent="1">
          <mxGeometry x="399" y="-40" width="10" height="320" as="geometry" />
        </mxCell>
        <mxCell id="lsiyhuXYmnHMVX7ljGka-29" value="" style="ellipse;whiteSpace=wrap;html=1;" vertex="1" parent="1">
          <mxGeometry x="440" y="170" width="320" height="80" as="geometry" />
        </mxCell>
        <mxCell id="lsiyhuXYmnHMVX7ljGka-30" value="" style="ellipse;whiteSpace=wrap;html=1;" vertex="1" parent="1">
          <mxGeometry x="440" y="170" width="320" height="70" as="geometry" />
        </mxCell>
        <mxCell id="lsiyhuXYmnHMVX7ljGka-33" value="" style="rounded=1;whiteSpace=wrap;html=1;arcSize=50;rotation=15;" vertex="1" parent="1">
          <mxGeometry x="479.13" y="0.02" width="20" height="206" as="geometry" />
        </mxCell>
        <mxCell id="lsiyhuXYmnHMVX7ljGka-34" value="" style="rounded=1;whiteSpace=wrap;html=1;arcSize=50;" vertex="1" parent="1">
          <mxGeometry x="510" y="10" width="70" height="20" as="geometry" />
        </mxCell>
        <mxCell id="lsiyhuXYmnHMVX7ljGka-42" value="" style="ellipse;shape=doubleEllipse;whiteSpace=wrap;html=1;aspect=fixed;" vertex="1" parent="1">
          <mxGeometry x="549" y="14.999999999999979" width="10" height="10" as="geometry" />
        </mxCell>
        <mxCell id="lsiyhuXYmnHMVX7ljGka-43" value="" style="ellipse;shape=doubleEllipse;whiteSpace=wrap;html=1;aspect=fixed;" vertex="1" parent="1">
          <mxGeometry x="510" y="14.999999999999986" width="10" height="10" as="geometry" />
        </mxCell>
        <mxCell id="lsiyhuXYmnHMVX7ljGka-48" value="" style="verticalLabelPosition=bottom;verticalAlign=top;html=1;shape=mxgraph.basic.arc;startAngle=0.22596516169134798;endAngle=0.7853454324595066;" vertex="1" parent="1">
          <mxGeometry x="544" y="23" width="20" height="17" as="geometry" />
        </mxCell>
        <mxCell id="lsiyhuXYmnHMVX7ljGka-49" value="" style="verticalLabelPosition=bottom;verticalAlign=top;html=1;shape=mxgraph.basic.rect;fillColor2=none;strokeWidth=1;size=20;indent=5;" vertex="1" parent="1">
          <mxGeometry x="790" y="-40" width="10" height="320" as="geometry" />
        </mxCell>
        <mxCell id="lsiyhuXYmnHMVX7ljGka-50" value="" style="shape=cube;whiteSpace=wrap;html=1;boundedLbl=1;backgroundOutline=1;darkOpacity=0.05;darkOpacity2=0.1;size=30;" vertex="1" parent="1">
          <mxGeometry x="840" y="200" width="350" height="40" as="geometry" />
        </mxCell>
        <mxCell id="lsiyhuXYmnHMVX7ljGka-56" value="" style="shape=cylinder3;whiteSpace=wrap;html=1;boundedLbl=1;backgroundOutline=1;size=6.571636060123183;rotation=60;" vertex="1" parent="1">
          <mxGeometry x="900" y="178" width="20" height="50" as="geometry" />
        </mxCell>
        <mxCell id="lsiyhuXYmnHMVX7ljGka-51" value="" style="rounded=1;whiteSpace=wrap;html=1;arcSize=50;rotation=60;" vertex="1" parent="1">
          <mxGeometry x="1035.57" y="-1.86" width="5.88" height="262.69" as="geometry" />
        </mxCell>
        <mxCell id="lsiyhuXYmnHMVX7ljGka-52" value="" style="shape=or;whiteSpace=wrap;html=1;rotation=-30;direction=south;" vertex="1" parent="1">
          <mxGeometry x="956.95" y="108.98" width="182.6" height="59.29" as="geometry" />
        </mxCell>
        <mxCell id="lsiyhuXYmnHMVX7ljGka-57" value="" style="shape=cube;whiteSpace=wrap;html=1;boundedLbl=1;backgroundOutline=1;darkOpacity=0.05;darkOpacity2=0.1;size=20;" vertex="1" parent="1">
          <mxGeometry x="1035.57" y="190" width="100.45" height="40" as="geometry" />
        </mxCell>
        <mxCell id="lsiyhuXYmnHMVX7ljGka-55" value="" style="rounded=1;whiteSpace=wrap;html=1;" vertex="1" parent="1">
          <mxGeometry x="1139.55" y="48.98" width="10" height="171.02" as="geometry" />
        </mxCell>
        <mxCell id="lsiyhuXYmnHMVX7ljGka-58" value="" style="shape=filledEdge;curved=0;rounded=0;fixDash=1;endArrow=none;strokeWidth=10;fillColor=#ffffff;edgeStyle=orthogonalEdgeStyle;html=1;" edge="1" parent="1" target="lsiyhuXYmnHMVX7ljGka-41">
          <mxGeometry width="60" height="40" relative="1" as="geometry">
            <mxPoint x="630" y="140" as="sourcePoint" />
            <mxPoint x="554.0000000000002" y="29.49" as="targetPoint" />
            <Array as="points">
              <mxPoint x="630" y="140" />
              <mxPoint x="555" y="140" />
            </Array>
          </mxGeometry>
        </mxCell>
        <mxCell id="lsiyhuXYmnHMVX7ljGka-41" value="" style="ellipse;shape=doubleEllipse;whiteSpace=wrap;html=1;aspect=fixed;" vertex="1" parent="1">
          <mxGeometry x="631.11" y="133.62" width="10" height="10" as="geometry" />
        </mxCell>
      </root>
    </mxGraphModel>
  </diagram>
</mxfile>
